<svg width="16" height="16" viewBox="0 0 16 16" fill="none" xmlns="http://www.w3.org/2000/svg">
<path d="M8.00008 9.33338C9.10465 9.33338 10.0001 8.43795 10.0001 7.33338C10.0001 6.22881 9.10465 5.33338 8.00008 5.33338C6.89551 5.33338 6.00008 6.22881 6.00008 7.33338C6.00008 8.43795 6.89551 9.33338 8.00008 9.33338Z" stroke="#0F0F10" stroke-opacity="0.3" stroke-width="2" stroke-linecap="round" stroke-linejoin="round"/>
<path d="M11.7714 11.1047L8.94275 13.9334C8.69274 14.1831 8.35381 14.3234 8.00042 14.3234C7.64703 14.3234 7.30809 14.1831 7.05808 13.9334L4.22875 11.1047C3.4829 10.3588 2.97497 9.40852 2.76921 8.37396C2.56344 7.3394 2.66908 6.26706 3.07275 5.29254C3.47643 4.31801 4.16002 3.48508 5.03707 2.89905C5.91413 2.31303 6.94526 2.00024 8.00008 2.00024C9.05491 2.00024 10.086 2.31303 10.9631 2.89905C11.8402 3.48508 12.5237 4.31801 12.9274 5.29254C13.3311 6.26706 13.4367 7.3394 13.231 8.37396C13.0252 9.40852 12.5173 10.3588 11.7714 11.1047Z" stroke="#0F0F10" stroke-opacity="0.3" stroke-width="2" stroke-linecap="round" stroke-linejoin="round"/>
</svg>
